<?xml version="1.0" encoding="utf-8"?>
<!-- Generator: Adobe Illustrator 24.0.2, SVG Export Plug-In . SVG Version: 6.00 Build 0)  -->
<svg version="1.1" id="Layer_1" xmlns="http://www.w3.org/2000/svg" xmlns:xlink="http://www.w3.org/1999/xlink" x="0px" y="0px"
	 viewBox="0 0 803 70" style="enable-background:new 0 0 803 70;" xml:space="preserve">
<style type="text/css">
	.st0{fill:#FFD981;}
</style>
<g id="_x30_1">
	<path id="Rectangle_6" class="st0" d="M2,61.4h14.5V67H2V61.4z M16.9,50.9h14.3V67H16.9V50.9z M31.8,38.8h14.3V67H31.8V38.8z
		 M46.5,26.7H61V67H46.5V26.7z M55.1,15L38.6,34.5L36,32.2l-11.4-9.1L7,44.1l-5-4.4L23.8,14l2.3,2l0.1-0.1l11.6,9.3l11.9-14.2
		l-6.2-4.7L61,2v17.5L55.1,15z"/>
</g>
<g id="_x30_2">
	<path id="_x32_" class="st0" d="M132,57.8c0,6.1-4.1,10.2-10.2,10.2c-5.5,0-8.9,0-13.2,0c0.9-0.6,1.8-1.2,2.4-1.8
		c1.2-1.3,4.7,1,6.8-2.2c1.2,0,2.8,0,4.3,0c3.7,0,6-2.2,6-5.9c0-18.3,0-27.9,0-45.9c0-3.9-2-6.1-5.8-6.2c0,0-0.1,0-0.5,0
		c-1,0-1.5,0.3-1.6,1.4c-0.1,1.9-1.3,3.1-3.2,3.1c-4.1,0-3.9,0-7.9,0c-2,0-3.2-1.1-3.2-3.1c0-1.1-0.5-1.5-1.6-1.4
		c-0.4,0-0.5,0-0.5,0c-3.8,0.1-5.8,2.3-5.8,6.2c0,3.2,0,10.5,0,13.3l0-0.1c0,0-0.6-0.6-3.9-1.4c0-1.8,0-9.9,0-11.8
		C93.9,6.1,98,2,103.9,2c7.3,0,10.6,0,18,0c6,0,10.1,4.1,10.1,10.1C132,30.3,132,39.8,132,57.8z M121.8,6c0.1,0,0.3,0,0.4,0
		C122.1,6,120.5,6,121.8,6z M103.7,6c0.1,0,0.3,0,0.4,0C105.3,6,103.7,6,103.7,6z"/>
	<path id="Ellipse_615" class="st0" d="M96,28c11,0,20,9,20,20s-9,20-20,20s-20-9-20-20S85,28,96,28z"/>
</g>
<g id="_x30_3">
	<path id="_x33_" class="st0" d="M177.3,56.4c-0.8,1.1-1.1,3-0.8,4.2c-0.1,0-0.2,0-0.3,0c-1.8,0-3.6,1.2-4,2.9
		c-0.2,1.2-0.2,3.2-0.2,4.5c3.6,0,7.1,0,10.5,0l0,0c-11.5,0-23,0-34.6,0c0.1-1.3,0-2.5,0.2-3.7c0.3-1.7,1.9-2.8,3.6-2.8
		c4.2,0,8.4,0,12.6,0c0.2,0,0.5,0,0.7,0c0.1-1.2-0.7-2-2-2c-2,0-4,0-6.1,0c-1.4,0-2.8,0-4.2,0c0-2.7,0.2-3.4,2.8-3.5
		c0.7-0.7,0.6-1.5,0.6-2.3c0-0.7-0.1-1.5,1.1-1.4c0.1,0,0.4-0.3,0.5-0.6c0,0,0,0,0-0.1c0,0,0,0,0,0.1c-0.4,0.8,1.8-14.6,2-24.5
		c0-0.2,0-0.4,0-0.7c-0.4,0-0.8,0-1.1,0c-1.4,0-2.3-0.5-2.5-1.5s0.3-1.7,1.6-2.3c-0.1-1.6,0-1.7,2.3-2c-0.2-3.9,0.1-8-3.4-11
		c0.6,0.2,1.1,0.4,1.8,0.6c-0.1-0.7-0.1-1.3-0.2-2c0.7,0.3,1.3,0.5,1.9,0.7c0.8-1.7,2.1-2.9,3.9-3.4c-1-1.4-1-2.3-0.1-3.1
		c0.3-0.3,0.8-0.5,1.3-0.5c0.5,0,0.9,0.2,1.3,0.5c0.9,0.8,0.8,1.7-0.1,3.1c1.9,0.5,3.1,1.7,3.9,3.4c0.6-0.2,1.2-0.5,1.9-0.7
		c-0.1,0.7-0.2,1.3-0.2,2c0.7-0.2,1.3-0.4,1.8-0.6c-3.5,3-3.2,7.1-3.4,11c2.3,0.3,2.4,0.4,2.3,2c1.3,0.6,1.8,1.3,1.6,2.3
		c-0.2,1-1,1.5-2.5,1.5c-0.4,0-0.8,0-1.2,0c0,0.3,0,0.5,0,0.7c0.2,9.9,2.4,25.3,2,24.5c0,0,0-0.1,0-0.1c0,0,0,0.1,0,0.1
		c0.1,0.3,0.4,0.6,0.5,0.6c1.2-0.1,1.1,0.7,1.1,1.4c0,0.8-0.1,1.7,0.7,2.4c0,0,0.1,0,0.1,0C175.7,55.9,176.8,55.8,177.3,56.4z
		 M172.8,68c0.1-1.3,0-2.6,0.2-3.8c0.3-1.7,2-2.9,3.8-2.9c4.4,0,8.7,0,13,0c0.2,0,0.5,0,0.7,0c0.1-1.3-0.7-2.1-2.1-2.1
		c-2.1,0-4.2,0-6.3,0c-1.4,0-2.9,0-4.3,0c-0.5-2.2,0.7-3.4,3.7-3.7c0-1.3,0-2.6,0-3.8c0-1,0-2,0-3c0-0.3-0.2-0.6-0.4-0.8
		c-1-0.8-2.1-1.5-3.1-2.3c-0.2-0.1-0.4-0.5-0.4-0.7c0-5-0.2-9.9,0-14.9c0.3-6.7,4.8-12.6,11.6-14.3c4.8-1.2,9.2-0.2,13.2,2.6
		c0.1,0,0.2,0.1,0.3,0.1c-1.2,1.2-2.3,2.2-3.5,3.3c0.2,0.2,0.4,0.4,0.5,0.6c2.8,2.8,5.7,5.6,8.5,8.4c0.2,0.2,0.4,0.6,0.4,1
		c0.1,0.6,0,1.3,0,1.9c0,0.2-0.1,0.4-0.2,0.6c-1.2,1.1-2.4,2.3-3.6,3.5c-0.7-0.7-1.5-1.5-2.3-2.3c-0.3-0.3-0.7-0.5-1.1-0.5
		c-1.9,0-3.8,0-5.7,0c-2.8,0-5-1.9-5.2-4.2c0-0.4-0.2-0.6-0.6-0.6c-0.3,0-0.5,0-0.9,0c-0.1,1.9,0.6,3.4,1.9,4.7
		c1.4,1.3,3,1.7,4.9,1.7c0,0.6,0,1.1,0,1.6c0,0.9,0.3,1.7,1,2.4c1.3,1.2,2.5,2.4,3.8,3.7c1.7,1.7,2,4.2,0.7,6.2
		c-0.2,0.2-0.3,0.5-0.5,0.7c-1.1,1.2-1.3,2.6-1,4.3c0.2,0,0.5,0,0.8,0c1.3-0.1,3,1.2,3,2.8c0,1,0,1.9,0,2.8c0.7,0.1,1.3,0.1,2,0.2
		c1.8,0.4,3,1.9,3,3.6c0,1,0,2,0,3C196.8,68,184.9,68,172.8,68z"/>
</g>
<g id="_x30_4">
	<path id="Rounded_Rectangle_616" class="st0" d="M276.7,20.8c-1.8-1.6-3.6-3.6-5.5-5.3c0.6-0.6,1.2-1.2,1.9-1.9
		c0.9-0.8,2.1-0.8,3,0c0.9,0.8,1.7,1.6,2.5,2.5c0.8,0.9,0.9,1.9,0.1,2.8C278.1,19.5,277.2,20.3,276.7,20.8z M260.9,10.5
		c-1.2,0-2.5,0-3.8,0c0,0.7,0,1.3,0,2.1c9.9,1.5,17.3,6.5,21.9,15.4c3.1,6.1,3.8,12.7,2,19.3c-3.8,14-16.6,21.5-28.6,20.7
		c-16.1-1-27.1-14.5-26.4-29c0.6-13.8,11.2-25,25.3-26.4c0-0.7,0-1.3,0-2.1c-1.4,0-2.7,0-4.1,0c-2.2,0-3.3-1.2-3.3-3.4
		c0-0.7,0-1.4,0-2.1c0-1.8,1.1-3,2.9-3c4.7,0,9.4,0,14.1,0c1.6,0,2.6,0.8,2.7,2.4c0.1,1.2,0,2.5-0.1,3.7
		C263.4,9.7,262.5,10.4,260.9,10.5z M235,40c0,10.5,8.5,19,19,19s19-8.5,19-19s-8.5-19-19-19S235,29.5,235,40z M256.4,41.7
		c-1,1-2.6,1-3.5,0c-0.4-0.4-0.6-0.8-0.7-1.3c-0.1-0.3-0.2-0.5-0.2-0.8v-11c0-1.4,1.1-2.5,2.5-2.5s2.5,1.1,2.5,2.5V34l3.6-3.6
		c1-1,2.6-1,3.5,0c1,1,1,2.6,0,3.5L256.4,41.7z M229.5,18.9c-0.7-0.8-0.7-2,0.1-2.8c0.8-0.9,1.7-1.7,2.6-2.6c0.9-0.8,2-0.8,2.9,0
		c0.6,0.6,1.3,1.2,1.9,1.8c-2,1.8-3.6,3.7-5.6,5.5C230.9,20.4,230.1,19.5,229.5,18.9z"/>
</g>
</svg>
